<svg xmlns="http://www.w3.org/2000/svg" xml:space="preserve" viewBox="0 0 20 20">
  <path d="M4.16 3.63a1.66 1.66 0 0 0-1.03 2.98V20h2.05v-2.04h11.94a.84.84 0 0 0 .77-1.2l-1.97-4.43 1.97-4.44a.8.8 0 0 0 .08-.34.84.84 0 0 0-.85-.85H5.04a1.66 1.66 0 0 0-.88-3.07zm5.58 6.38c.13 0 .2.02.26.1.15.14 1.6 3.62 1.6 3.83 0 .18-.12.34-.3.37-.24.05-.4-.1-.54-.43l-.13-.26H8.84s-.09.16-.14.3c-.13.33-.3.44-.55.4a.45.45 0 0 1-.19-.15c-.15-.18-.12-.34.33-1.4l.74-1.74c.2-.46.4-.87.44-.93.07-.07.13-.1.27-.1zm-2.89.06h.87c.31.01.53.06.55.38 0 .34-.37.38-.55.38H6.34v1.08h1.08c.17 0 .52.03.52.37 0 .35-.27.36-.54.36H6.34v1.17c0 .36-.11.52-.44.52-.3 0-.4-.16-.4-.5v-3.04c0-.4 0-.53.08-.62.1-.1.14-.1.47-.1h.8zm5.5.01h1.03c.97 0 1.05 0 1.14.1.15.13.15.4 0 .54-.08.08-.11.1-.84.1l-.75.02v.72l.41.01c.52.03.78.12 1.07.38.24.22.36.47.4.8.07.76-.7 1.56-1.58 1.56-.54 0-.92-.19-1.2-.42-.23-.24-.31-.4-.28-.55.05-.2.16-.28.38-.28.13 0 .26.1.37.2.56.56 1.55.28 1.55-.36 0-.46-.35-.6-1.12-.63-.62-.02-.64-.03-.73-.18-.07-.1-.08-.2-.08-.94v-.82c0-.19.08-.25.23-.25zm-2.6 1.2-.6 1.6h1.18l-.57-1.6z"/>
    <path d="M11.67 1.6c-.18 0-.35.03-.5.08-.14.05-.26.12-.37.22a.95.95 0 0 0-.34.77.93.93 0 0 0 .35.73c.1.1.22.17.36.24l.4.19.3.14.16.14c.04.05.07.1.08.16l.02.18c0 .08-.02.16-.04.22a.32.32 0 0 1-.13.15.44.44 0 0 1-.24.06.76.76 0 0 1-.24-.03.46.46 0 0 1-.17-.11.44.44 0 0 1-.1-.2 1.12 1.12 0 0 1-.04-.29h-.76c0 .22.03.4.1.56a1.06 1.06 0 0 0 .7.62 1.67 1.67 0 0 0 .98 0c.15-.05.27-.13.38-.22.1-.1.18-.2.23-.33a1 1 0 0 0 .09-.43c0-.16-.03-.3-.07-.43a1.01 1.01 0 0 0-.2-.34 1.5 1.5 0 0 0-.33-.27 2.85 2.85 0 0 0-.46-.22 3.3 3.3 0 0 1-.43-.22.5.5 0 0 1-.13-.13.33.33 0 0 1-.05-.17c0-.09.02-.16.05-.23a.36.36 0 0 1 .14-.15.45.45 0 0 1 .24-.07c.1 0 .2.03.26.07a.4.4 0 0 1 .14.2.8.8 0 0 1 .05.29h.76c0-.23-.05-.43-.15-.61-.1-.18-.24-.31-.42-.41-.17-.1-.38-.15-.62-.15zm-4.1.06v3.79h.77v-1.4h.38l.57 1.4h.82V5.4l-.67-1.55c.09-.05.17-.1.23-.17.1-.1.18-.22.24-.36.06-.15.08-.32.08-.53 0-.25-.04-.46-.14-.63a.92.92 0 0 0-.41-.38c-.18-.09-.4-.13-.65-.13H7.57zm.77.63h.45c.1 0 .19.02.25.07.07.05.12.11.15.2a.9.9 0 0 1 .04.3c0 .12-.01.22-.05.3a.41.41 0 0 1-.15.2.46.46 0 0 1-.26.07h-.43V2.29z" font-family="Roboto Condensed" font-size="5.33" font-weight="700" paint-order="markers fill stroke" style="-inkscape-font-specification:&quot;Roboto Condensed, Bold&quot;"/>
</svg>