<?xml version="1.0" encoding="UTF-8" standalone="no"?>
<svg
   viewBox="0 0 20 20"
   version="1.1"
   id="svg2570"
   sodipodi:docname="rs-fa5.svg"
   xml:space="preserve"
   inkscape:version="1.2.1 (9c6d41e410, 2022-07-14)"
   xmlns:inkscape="http://www.inkscape.org/namespaces/inkscape"
   xmlns:sodipodi="http://sodipodi.sourceforge.net/DTD/sodipodi-0.dtd"
   xmlns="http://www.w3.org/2000/svg"
   xmlns:svg="http://www.w3.org/2000/svg"><defs
     id="defs2574" /><sodipodi:namedview
     id="namedview2572"
     pagecolor="#ffffff"
     bordercolor="#000000"
     borderopacity="0.25"
     inkscape:showpageshadow="2"
     inkscape:pageopacity="0.0"
     inkscape:pagecheckerboard="0"
     inkscape:deskcolor="#d1d1d1"
     showgrid="false"
     showguides="true"
     inkscape:zoom="32"
     inkscape:cx="22.703125"
     inkscape:cy="13.078125"
     inkscape:window-width="2560"
     inkscape:window-height="1346"
     inkscape:window-x="-11"
     inkscape:window-y="-11"
     inkscape:window-maximized="1"
     inkscape:current-layer="svg2570"><sodipodi:guide
       position="-212.52038,151.52694"
       orientation="0,-1"
       id="guide14701"
       inkscape:locked="false" /><sodipodi:guide
       position="-270.3548,96.23338"
       orientation="1,0"
       id="guide14703"
       inkscape:locked="false" /><sodipodi:guide
       position="-248.3548,67.63453"
       orientation="1,0"
       id="guide14705"
       inkscape:locked="false" /></sodipodi:namedview><path
     fill="currentColor"
     d="M 5.0436253,6.7025131 C 5.5098762,6.4080963 5.8195644,5.8882357 5.8195644,5.2960477 c 0,-0.9179981 -0.7441888,-1.662186 -1.662186,-1.662186 -0.9179973,0 -1.6621862,0.7441879 -1.6621862,1.662186 0,0.5322361 0.2501565,1.0060463 0.6393024,1.3102727 V 20 H 5.180262 v -2.045768 h 11.942269 c 0.466027,0 0.843777,-0.37775 0.843777,-0.843777 0,-0.118149 -0.02474,-0.234853 -0.07272,-0.342767 l -1.973044,-4.439315 1.973042,-4.4393359 c 0.04798,-0.1078882 0.07272,-0.2246453 0.07272,-0.3427073 0,-0.4660254 -0.37775,-0.8438167 -0.843778,-0.8438167 z"
     class=""
     id="path4568"
     style="stroke-width:1.02288" /><path
     style="fill:#ffffff;fill-opacity:1;stroke-width:0.0385032"
     d="M 5.4935741,13.822999 V 12.201114 10.78929 c 0,-0.405053 0,-0.532514 0.086518,-0.619033 0.098122,-0.09812 0.1369102,-0.09581 0.4691911,-0.09581 0.3695061,0 1.2053452,-0.0071 1.6711008,-0.0023 0.3123406,0.01124 0.5328003,0.05391 0.5460081,0.381683 -0.00163,0.334426 -0.3628993,0.379819 -0.543073,0.380432 H 6.3406444 v 0.539045 0.539045 h 1.0773843 c 0.174884,0 0.5184353,0.02302 0.521458,0.366916 0,0.350352 -0.2724046,0.364645 -0.5401522,0.364645 H 6.3406444 v 0.658361 0.508693 c 0,0.363684 -0.1137661,0.521858 -0.4365306,0.521858 -0.3131138,0 -0.4105397,-0.162927 -0.4105397,-0.509815 z m 2.6565564,0.48874 C 8.1032052,14.302276 8.0190414,14.240131 7.9630983,14.173647 7.8067,13.987778 7.8438205,13.82974 8.2907552,12.778663 8.5068683,12.27042 8.8403649,11.482067 9.0318591,11.026767 c 0.191494,-0.4553 0.3899153,-0.871135 0.4409357,-0.924076 0.071686,-0.07439 0.1317357,-0.09626 0.2642784,-0.09626 0.1319511,0 0.1934236,0.0222 0.2664958,0.09626 0.147814,0.1498 1.600909,3.629325 1.600909,3.833473 0,0.188096 -0.124466,0.340139 -0.308589,0.376964 -0.230681,0.04613 -0.404452,-0.09482 -0.538786,-0.437028 -0.0457,-0.116419 -0.123114,-0.259896 -0.123114,-0.259896 -0.205516,0 -1.175186,-7.7e-5 -1.7935051,-7.7e-5 0,0 -0.086878,0.166177 -0.1445441,0.310459 -0.1299201,0.32506 -0.2886256,0.437057 -0.5458093,0.385173 z M 10.334614,12.884546 9.7558619,11.28467 9.1402736,12.872805 Z m 1.704202,1.003776 c -0.242366,-0.242366 -0.31936,-0.392593 -0.284674,-0.550516 0.04312,-0.196293 0.155229,-0.276121 0.373995,-0.276121 0.13319,0 0.259728,0.09329 0.375218,0.199707 0.558134,0.558134 1.543841,0.279162 1.543841,-0.365606 0,-0.454987 -0.343446,-0.595854 -1.11852,-0.623956 -0.614476,-0.02228 -0.64195,-0.02894 -0.732611,-0.177633 -0.06894,-0.113061 -0.07568,-0.196837 -0.07581,-0.941687 l -1.42e-4,-0.817586 c 0,-0.193789 0.07452,-0.251486 0.224702,-0.251486 h 1.039644 c 0.965014,0 1.041589,0.0018 1.139002,0.09334 0.141771,0.133187 0.14182,0.411601 1.16e-4,0.544874 -0.08371,0.07872 -0.11639,0.09362 -0.84707,0.105257 l -0.747826,0.01191 v 0.358547 0.358547 l 0.413909,0.01896 c 0.519034,0.02378 0.775545,0.114948 1.063261,0.377904 0.239185,0.218603 0.3605,0.46401 0.395657,0.800375 0.07908,0.756573 -0.698564,1.553562 -1.57052,1.553562 -0.535918,0 -0.925215,-0.18275 -1.19217,-0.418402 z"
     id="path14650"
     sodipodi:nodetypes="cssssccccccccccscccccsssssssscsccccccccccccsccccccscccsscscccc" /><text
     xml:space="preserve"
     style="font-weight:bold;font-size:5.33333px;font-family:'Roboto Condensed';-inkscape-font-specification:'Roboto Condensed,  Bold';opacity:1;fill:#000000;fill-opacity:1;stroke-width:0.25;stroke-linecap:square;paint-order:markers fill stroke"
     x="7.2646065"
     y="5.4494019"
     id="text6678"><tspan
       sodipodi:role="line"
       id="tspan6676"
       x="7.2646065"
       y="5.4494019">RS</tspan></text></svg>
